<svg width="16" height="16" viewBox="0 0 16 16" fill="none" xmlns="http://www.w3.org/2000/svg">
<path fill-rule="evenodd" clip-rule="evenodd" d="M12.1227 11.2297L15.4893 13.6344C16.1305 14.1154 16.1305 14.9169 15.5694 15.5582C15.0083 16.1994 14.0464 16.1193 13.5655 15.3979L11.1608 12.0313C9.95846 13.0733 8.51564 13.6344 6.83235 13.6344C3.06499 13.6344 0.019043 10.5885 0.019043 6.82112C0.019043 3.05376 3.06499 0.0078125 6.83235 0.0078125C10.5997 0.0078125 13.6457 3.05376 13.7258 6.90128C13.7258 8.50441 13.0846 10.0274 12.1227 11.2297ZM1.62217 6.82112C1.62217 9.70676 3.94671 12.0313 6.83235 12.0313C9.71799 12.0313 12.0425 9.70676 12.0425 6.82112C12.0425 3.93548 9.71799 1.61094 6.83235 1.61094C3.94671 1.61094 1.62217 3.93548 1.62217 6.82112Z" fill="#2A282B"/>
</svg>
